<?xml version="1.0" encoding="UTF-8"?>
<svg width="114px" height="47px" viewBox="0 0 114 47" version="1.1" xmlns="http://www.w3.org/2000/svg" xmlns:xlink="http://www.w3.org/1999/xlink">
    <!-- Generator: Sketch 48.2 (47327) - http://www.bohemiancoding.com/sketch -->
    <title>Page 1</title>
    <desc>Created with Sketch.</desc>
    <defs>
        <polygon id="path-1" points="7.20793508e-05 0.0759394087 113.801091 0.0759394087 113.801091 46.9999758 7.20793508e-05 46.9999758"></polygon>
    </defs>
    <g id="whyPendo_v2_1" stroke="none" stroke-width="1" fill="none" fill-rule="evenodd" transform="translate(-455.000000, -1579.000000)">
        <g id="Page-1" transform="translate(455.000000, 1579.000000)">
            <g id="Group-3">
                <mask id="mask-2" fill="white">
                    <use xlink:href="#path-1"></use>
                </mask>
                <g id="Clip-2"></g>
                <path d="M111.004969,6.80338122 C110.43355,5.44610711 109.853617,4.11531523 109.315546,2.76758426 C109.0866,2.19284822 108.712198,2.07188883 108.134629,2.07021878 C86.3414714,2.00723401 64.5485502,1.92062995 42.7553925,1.86313249 C41.0520149,1.85883807 39.334683,1.94281777 37.6516456,2.18473655 C37.0043054,2.27778223 36.2666166,2.80384822 35.874712,3.35401066 C35.4312473,3.97598528 35.2209859,4.83081269 35.1110066,5.61335076 C35.00221,6.38777716 34.6079402,6.74325939 33.9461726,6.83296497 C32.8028614,6.98780254 32.1874506,7.68588376 31.7146581,8.68194975 C30.9592307,10.2732695 30.0415544,10.6347162 28.5798946,9.76986853 C27.6440066,9.21588883 27.1066456,9.43585838 26.4548116,10.1465843 C25.3353884,11.3666756 24.050405,12.078833 22.2793842,11.5293863 C21.8158158,11.3857619 21.0523469,11.6644218 20.6450689,12.0108381 C19.5937618,12.9052695 18.7125087,14.0013 17.6763386,14.916965 C15.2345627,17.0749091 12.4380149,18.5371579 9.12704813,18.4834777 C7.68903983,18.4598584 6.75315187,18.996899 6.0436083,20.1046198 C5.59375768,20.8065183 5.19381162,21.5594726 4.89840498,22.3386706 C4.5389029,23.2853508 4.0356,23.6615893 3.09001494,23.1405335 C2.51031784,22.8210766 2.21396515,23.0396147 2.09357925,23.6479904 C2.03705228,23.9333305 1.93180332,24.2088888 1.87172863,24.4937518 C1.6025751,25.769432 1.65011452,25.8333711 2.90647967,25.8355183 C6.46625975,25.8421985 10.0321892,25.7112188 13.5839278,25.8846655 C17.081268,26.0557264 20.3477701,25.3855589 23.522268,23.9893964 C24.1421726,23.716701 24.8396539,23.459036 25.4981104,23.4671477 C30.2529983,23.5263152 35.0076498,23.7586909 39.7611187,23.7298228 C43.6735419,23.7057264 46.4152183,25.2135437 47.6890855,29.0408228 C47.9497245,29.8238381 48.4116373,29.9822543 49.1483801,29.9910817 C53.0697909,30.0383203 56.9923842,30.0946249 60.9107203,30.2415893 C61.5594797,30.2656858 62.3361934,30.6011274 62.8073303,31.0539497 C66.3834299,34.4911528 69.9131726,37.9777416 73.4228116,41.4841325 C74.5531145,42.6130868 75.5798241,43.8477315 76.6538365,45.0341832 C76.7321228,44.8535792 76.8101726,44.6727365 76.8882224,44.4923711 C78.0417037,44.334432 79.1923469,44.1543051 80.3491394,44.0261883 C81.1045668,43.9422086 81.8786788,43.9932645 82.6236996,43.8637162 C82.9526913,43.8064574 83.3155046,43.5106198 83.5165419,43.2202695 C84.3679942,41.9908736 85.1402141,40.7061274 85.985517,39.4724371 C89.7418407,33.9908533 94.8680564,30.9699701 101.519081,30.7006147 C101.760563,30.6910716 102.081513,30.6717467 102.224368,30.520965 C103.07511,29.6227162 103.921123,28.7146858 104.692397,27.747965 C105.114339,27.219036 104.754127,26.9060208 104.198318,26.946102 C103.626899,26.9873761 103.06092,27.1388736 102.498488,27.2677061 C101.562363,27.4819497 101.032807,26.9336959 101.303144,26.0094421 C101.477691,25.4127569 101.649401,24.8151173 101.836247,24.2220107 C102.014343,23.6570563 101.896795,23.3614574 101.249691,23.2233203 C100.700032,23.1061782 100.140438,22.8518533 99.6818365,22.5216604 C98.6243801,21.7613102 98.0766124,19.9192442 98.5127452,18.8745081 C98.9081975,17.9271122 100.120571,17.4456604 101.660517,17.8247619 C102.950231,18.1420716 104.203758,18.6280563 105.44877,19.1047365 C106.313467,19.4356452 107.137011,19.8772543 108.089928,20.3210107 C108.168451,18.546701 109.575476,17.9843711 110.602185,17.0959041 C112.344115,15.5888025 112.396148,14.8160462 110.877015,13.0472239 C108.721185,14.5259345 108.032218,14.3162239 107.036492,11.8433558 C106.624957,11.8106706 106.190953,11.8008888 105.76499,11.7376655 C104.821534,11.5976198 104.126181,11.1333457 103.940754,10.1267822 C103.756272,9.1245132 104.221969,8.46746751 105.060886,7.96430508 C106.803525,6.91909188 108.545928,5.97599036 110.638845,6.96800051 C110.659895,6.97754365 110.701758,6.94151827 111.004969,6.80338122 M105.814185,9.91635584 C106.361243,9.91635584 106.916579,9.97743198 107.45394,9.90466548 C108.971181,9.69901066 109.149749,9.85909695 108.981351,11.4189244 C108.963849,11.5825893 109.012098,11.7534117 109.048285,12.0931477 C109.572874,11.6670462 109.970928,11.311564 110.400438,11.0009345 C111.48604,10.2160107 112.33016,10.5598025 112.664592,11.8493203 C112.818326,12.4419497 113.038048,13.0372036 113.339604,13.5663711 C114.021476,14.7609345 113.942007,15.8863102 113.139749,16.9529954 C112.725612,17.5033964 112.267484,18.0454472 111.737691,18.4765589 C110.78099,19.2550411 109.814355,19.9113711 109.600783,21.3352086 C109.455799,22.3012137 108.594177,22.5393152 107.610276,22.0938888 C106.419426,21.5551782 105.279662,20.8885893 104.062795,20.4233609 C102.872654,19.9683914 101.613687,19.6971274 100.284949,19.3165944 C100.13216,20.6671883 100.60448,21.2295183 101.534455,21.4700056 C103.814455,22.0590563 103.937442,22.2568381 103.567061,24.7313761 C103.552397,24.8296706 103.589766,24.9360766 103.603011,25.0369954 C104.185073,25.146503 104.772339,25.1784726 105.301658,25.3721985 C106.675571,25.8746452 107.235164,27.3166147 106.370704,28.4668025 C105.345413,29.8305183 104.136351,31.0575284 102.957326,32.2955132 C102.748957,32.5142898 102.296505,32.5767975 101.957106,32.5748888 C96.2452805,32.5476909 91.7153178,34.9334777 88.2435212,39.4361731 C87.2863469,40.677498 86.4195212,41.9939751 85.5673593,43.3128381 C85.2594174,43.7890411 85.1759278,44.4117315 84.8769734,44.8965234 C84.6801934,45.2157416 84.2975129,45.5955589 83.9701768,45.6244269 C82.4945627,45.7539751 81.0042846,45.7184269 79.5286705,45.8498838 C78.9969859,45.8971223 78.4248573,46.1526401 77.9863593,46.4732898 C76.9270108,47.2486706 76.3314672,47.189503 75.5429278,46.1519244 C75.1924133,45.6897975 74.7567535,45.2906553 74.3416705,44.8819701 C70.1813801,40.7870056 66.0317328,36.6803508 61.8307618,32.6280919 C61.4182805,32.2303812 60.6872141,32.0065944 60.0949817,31.9875081 C56.1380938,31.8601071 52.1788407,31.7882949 48.2198241,31.7517924 C47.2628863,31.7432036 46.6652141,31.4946046 46.3690979,30.4889954 C45.3371851,26.9809345 43.0978656,25.3877061 39.3476913,25.4986452 C34.8182017,25.6327264 30.2768863,25.3077822 25.7395917,25.2731883 C24.947268,25.2672239 24.1126083,25.6265234 23.3638033,25.9662594 C20.4220357,27.3003914 17.3584631,27.7780259 14.1423386,27.6876046 C10.2218739,27.5776198 6.29667884,27.6456147 2.37361245,27.6265284 C0.737168465,27.6184168 -0.144794191,26.7056147 0.0195834025,25.0577518 C0.109222407,24.157833 0.381923651,23.2679345 0.650840664,22.3980766 C0.922359336,21.5181985 1.61463734,21.0734878 2.4949444,21.1946858 C3.22317261,21.2948888 3.50084066,20.9768635 3.81327635,20.4078533 C4.25011867,19.6129091 4.74869129,18.8337112 5.33264564,18.1442188 C6.11598174,17.219965 7.15688216,16.6323457 8.39006888,16.7027264 C12.1104423,16.9150614 14.9311145,15.1238127 17.4634755,12.660965 C18.0904755,12.0509193 18.668044,11.389102 19.2697369,10.7523355 C20.2226539,9.74314772 21.3468075,9.27935076 22.7117328,9.73503604 C23.6260979,10.0401782 24.3803427,9.77034569 24.9768324,9.10280254 C26.3701394,7.54392944 27.8597079,6.79837107 29.7312473,8.52305635 C30.0798697,7.90394467 30.2761768,7.38121878 30.6188863,6.9882797 C31.1127286,6.42213249 31.6335336,5.74361472 32.2865502,5.48785838 C33.2328448,5.11734569 33.6420149,4.45576701 33.8981602,3.60523401 C34.6230772,1.19869086 35.466961,0.420685787 38.0085461,0.320005584 C41.8537992,0.167315228 45.7044921,0.0663964467 49.5523469,0.0766553299 C69.2412349,0.128188325 88.9296498,0.231970051 108.618065,0.276107107 C109.730866,0.278731472 110.381517,0.610355838 110.77011,1.64912741 C111.332305,3.15312741 112.087733,4.5946198 112.529542,6.13058934 C113.125322,8.19954365 111.93187,9.40746751 109.951061,8.65737614 C108.194231,7.9919802 107.096803,9.0014066 105.814185,9.91635584" id="Fill-1" fill="#FEFEFE" mask="url(#mask-2)"></path>
            </g>
            <path d="M75.147162,9 L75.8155801,9 C75.8313567,9.0054888 75.8471333,9.0143186 75.863374,9.01575047 C76.4227478,9.06610423 76.9456962,9.24532543 77.4373234,9.51475385 C78.0904289,9.87271897 78.6778759,10.3282893 79.2258813,10.8382702 C79.3184529,10.9241819 79.4077764,11.0134345 79.499884,11.1019712 C79.5182127,11.0850275 79.5314372,11.0740499 79.5435017,11.0618791 C79.9657582,10.6287413 80.4362726,10.2578894 80.9255797,9.9097087 C81.497482,9.50282168 82.1127701,9.20189233 82.7978928,9.06347915 C82.9257298,9.03746702 83.0556549,9.02076198 83.1846519,9 L83.852838,9 C84.0080521,9.01765961 84.1634982,9.03412601 84.3184802,9.05345613 C84.8483889,9.11908306 85.3595049,9.25678032 85.8348914,9.50878776 C87.1612872,10.2123086 87.8055764,11.3776044 87.9645026,12.8672166 C87.9770311,12.9831973 87.9883995,13.0996553 88,13.2158746 L88,13.8509047 C87.9925757,13.9053154 87.9844554,13.9597261 87.9784232,14.0143755 C87.9139246,14.5852105 87.7508223,15.1254992 87.5065167,15.6412076 C87.0826362,16.5342113 86.489621,17.2993021 85.8012501,17.9851633 C83.8463418,19.9334481 81.8830811,21.8724259 79.9228365,23.8149833 C79.6718027,24.0636497 79.3240211,24.0610247 79.0718273,23.8109264 C77.9560957,22.702905 76.8410601,21.5941677 75.7241685,20.4873395 C74.8339497,19.6045975 73.9390908,18.7263897 73.0518881,17.8405454 C72.5952943,17.3844978 72.2127114,16.8644938 71.8640017,16.318239 C71.4811868,15.7180508 71.2269049,15.0620201 71.0800431,14.3618403 C71.0445457,14.193358 71.026217,14.0212961 71,13.8509047 L71,13.198215 C71.0051042,13.1698164 71.0116005,13.1416565 71.0155446,13.1132579 C71.0568422,12.8118513 71.077027,12.5051945 71.1424536,12.2092767 C71.5565897,10.3373577 72.9447,9.2682352 74.6727035,9.05369477 C74.8307016,9.03412601 74.9889318,9.01789826 75.147162,9" id="Fill-4" fill="#FEFEFE"></path>
        </g>
    </g>
</svg>