<?xml version="1.0" encoding="UTF-8"?>
<svg width="122px" height="28px" viewBox="0 0 122 28" version="1.1" xmlns="http://www.w3.org/2000/svg" xmlns:xlink="http://www.w3.org/1999/xlink">
    <!-- Generator: Sketch 48.2 (47327) - http://www.bohemiancoding.com/sketch -->
    <title>pendo-logo-white</title>
    <desc>Created with Sketch.</desc>
    <defs></defs>
    <g id="whyPendo_v2_1" stroke="none" stroke-width="1" fill="none" fill-rule="evenodd" transform="translate(-41.000000, -21.000000)">
        <g id="pendo-logo-white" transform="translate(41.000000, 21.000000)" fill="#FFFFFE">
            <path d="M45.2676085,14.2015347 C45.2676085,17.263101 42.680322,19.753918 39.500157,19.753918 C36.3197827,19.753918 33.7324962,17.263101 33.7324962,14.2015347 C33.7324962,11.1399684 36.3197827,8.64925212 39.500157,8.64925212 C42.680322,8.64925212 45.2676085,11.1399684 45.2676085,14.2015347 Z M39.500157,6.01884692 C37.3431601,6.01884692 35.3092826,6.78955494 33.7324962,8.19672447 L33.7324962,6 L31,6 L31,28 L33.7324962,28 L33.7324962,20.2063449 C35.3092826,21.6136152 37.3431601,22.3843232 39.500157,22.3843232 C44.1869638,22.3843232 48,18.7135076 48,14.2015347 C48,9.68956181 44.1869638,6.01884692 39.500157,6.01884692 Z" id="Fill-1"></path>
            <path d="M52.7612024,13.1338042 C53.3566678,10.5719582 55.5748138,8.7323915 58.1048179,8.7323915 C60.6019791,8.7323915 62.6938444,10.5326982 63.2513757,13.1338042 L52.7612024,13.1338042 Z M58.1048179,6 C53.6357828,6 50,9.81303617 50,14.4999477 C50,19.1869638 53.6357828,23 58.1048179,23 C60.6076692,23 62.9049776,22.0173483 64.4077665,20.3039371 L65.2897341,19.2984622 L63.3722657,17.4486356 L63.271341,17.5637983 L62.4902981,18.4543198 C61.4942288,19.5897191 59.8548772,20.2676085 58.1048179,20.2676085 C55.5748138,20.2676085 53.3566678,18.4280418 52.7612024,15.8661958 L66,15.8661958 L66,14.4999477 C66,9.73367862 62.5320256,6 58.1048179,6 Z" id="Fill-2"></path>
            <path d="M75.999843,6 C74.0501625,6 72.1930897,6.73170553 70.7310386,8.0681796 L70.7310386,6 L68,6 L68,23 L70.7310386,23 L70.7310386,14.3245527 C70.7310386,11.229243 73.0946809,8.71107078 75.999843,8.71107078 C78.9052144,8.71107078 81.2689614,11.229243 81.2689614,14.3245527 L81.2689614,23 L84,23 L84,14.3245527 C84,9.73435743 80.411215,6 75.999843,6" id="Fill-3"></path>
            <path d="M101.268031,13.7984653 C101.268031,16.8599308 98.6806489,19.3507479 95.5003664,19.3507479 C92.3198746,19.3507479 89.7324925,16.8599308 89.7324925,13.7984653 C89.7324925,10.7367982 92.3198746,8.24608196 95.5003664,8.24608196 C98.6806489,8.24608196 101.268031,10.7367982 101.268031,13.7984653 Z M101.424344,0 L101.268031,0 L101.268031,7.7935543 C99.6910816,6.38638477 97.6572337,5.61567675 95.5003664,5.61567675 C90.8131771,5.61567675 87,9.28639164 87,13.7984653 C87,18.3104382 90.8131771,21.9811531 95.5003664,21.9811531 C97.6572337,21.9811531 99.6910816,21.2104451 101.268031,19.8032755 L101.268031,22 L104,22 L104,0 L101.424344,0 Z" id="Fill-4"></path>
            <path d="M119.267521,14.5000523 C119.267521,17.6802173 116.680564,20.2676085 113.5,20.2676085 C110.319436,20.2676085 107.732479,17.6802173 107.732479,14.5000523 C107.732479,11.319678 110.319436,8.7323915 113.5,8.7323915 C116.680564,8.7323915 119.267521,11.319678 119.267521,14.5000523 Z M113.5,6 C108.812908,6 105,9.81303617 105,14.5000523 C105,19.1869638 108.812908,23 113.5,23 C118.187092,23 122,19.1869638 122,14.5000523 C122,9.81303617 118.187092,6 113.5,6 Z" id="Fill-5"></path>
            <polyline id="Fill-6" points="12.500051 3 0 15.5 12.500051 15.5 12.500051 28 25 15.5 25 3 12.500051 3"></polyline>
        </g>
    </g>
</svg>